<svg xmlns="http://www.w3.org/2000/svg" width="56.001" height="56" viewBox="0 0 56.001 56">
  <path id="call-centre" d="M15.559,15.559a1.23,1.23,0,0,1,1.739,0l.072.073a1.229,1.229,0,0,1-1.74,1.738l-.072-.073A1.23,1.23,0,0,1,15.559,15.559Zm11.246-3.923v.1a1.229,1.229,0,1,0,2.459,0v-.1a1.229,1.229,0,1,0-2.459,0Zm17.458,15.1a1.229,1.229,0,0,0,0,2.459h.1a1.229,1.229,0,0,0,0-2.459ZM23.737,4.265A4.264,4.264,0,1,1,28,8.528,4.268,4.268,0,0,1,23.737,4.265Zm2.459,0A1.8,1.8,0,1,0,28,2.46,1.806,1.806,0,0,0,26.2,4.265ZM41.77,14.232a4.269,4.269,0,1,1,3.015,1.247A4.235,4.235,0,0,1,41.77,14.232Zm1.21-3.015a1.8,1.8,0,1,0,.529-1.276A1.793,1.793,0,0,0,42.98,11.217ZM8.2,14.231a4.264,4.264,0,1,1,3.015,1.249A4.268,4.268,0,0,1,8.2,14.231ZM9.94,12.493a1.8,1.8,0,1,0,0-2.552A1.807,1.807,0,0,0,9.94,12.493ZM39.5,17.731a1.226,1.226,0,0,0,.87-.361l.072-.072A1.23,1.23,0,1,0,38.7,15.561l-.072.072a1.229,1.229,0,0,0,.87,2.1ZM32.264,51.738A4.264,4.264,0,1,1,28,47.474,4.268,4.268,0,0,1,32.264,51.738Zm-2.459,0a1.8,1.8,0,1,0-1.8,1.8A1.807,1.807,0,0,0,29.805,51.738Zm-18.17-25a1.229,1.229,0,0,0,0,2.459h.1a1.229,1.229,0,0,0,0-2.459ZM47.8,41.771A4.263,4.263,0,0,1,41.77,47.8h0a4.263,4.263,0,0,1,6.029-6.03ZM46.061,43.51a1.8,1.8,0,0,0-2.552,2.552h0a1.8,1.8,0,1,0,2.552-2.552ZM40.442,38.7l-.072-.072a1.23,1.23,0,0,0-1.74,1.738l.072.072a1.23,1.23,0,0,0,1.74-1.738ZM56,28a4.264,4.264,0,1,1-4.263-4.263A4.268,4.268,0,0,1,56,28Zm-2.459,0a1.8,1.8,0,1,0-1.8,1.8A1.807,1.807,0,0,0,53.542,28Zm-13.076.67V25.946c0-1.132-.989-2.041-2.511-2.359a10.7,10.7,0,0,0-19.9.015c-1.481.33-2.456,1.229-2.456,2.343v2.725c0,1.184,1.095,2.126,2.741,2.4a1.3,1.3,0,0,0,1.028-.275,1.261,1.261,0,0,0,.466-.938V27.5a8.2,8.2,0,1,1,10.924,7.709,2.25,2.25,0,0,0-1.436-.553H26.7a2.254,2.254,0,0,0,0,4.508h2.625a2.228,2.228,0,0,0,2.121-1.56,10.665,10.665,0,0,0,6.67-6.615C39.546,30.647,40.466,29.762,40.466,28.671Zm-26.235,13.1a4.263,4.263,0,1,1-6.03,0h0A4.268,4.268,0,0,1,14.231,41.771ZM12.492,43.51a1.807,1.807,0,0,0-2.552,0h0a1.8,1.8,0,1,0,2.552,0ZM4.264,32.265A4.264,4.264,0,1,1,8.527,28,4.268,4.268,0,0,1,4.264,32.265ZM6.068,28a1.8,1.8,0,1,0-1.8,1.8A1.807,1.807,0,0,0,6.068,28Zm9.563,10.63-.072.072A1.229,1.229,0,0,0,17.3,40.443l.072-.072a1.229,1.229,0,0,0-1.739-1.739Zm13.632,5.735v-.1a1.229,1.229,0,1,0-2.459,0v.1a1.229,1.229,0,1,0,2.459,0Z" transform="translate(0 -0.001)" fill="#7649fe"/>
</svg>
