<svg id="facebook-box-fill" xmlns="http://www.w3.org/2000/svg" width="21" height="21" viewBox="0 0 21 21">
  <g id="facebook-box-fill-2" data-name="facebook-box-fill" opacity="0.5">
    <path id="Path_408" data-name="Path 408" d="M0,0H21V21H0Z" fill="none"/>
    <path id="iconfinder_Rounded_Linkedin2_svg_5282542" d="M14.04,0a1.955,1.955,0,0,1,1.954,1.954V14.04a1.955,1.955,0,0,1-1.954,1.954H1.954A1.955,1.955,0,0,1,0,14.04V1.954A1.955,1.955,0,0,1,1.954,0H14.04ZM5.012,13.222V6.171H2.668v7.051Zm8.451,0V9.179c0-2.166-1.156-3.173-2.7-3.173A2.328,2.328,0,0,0,8.653,7.17v-1H6.309c.031.662,0,7.051,0,7.051H8.653V9.285a1.6,1.6,0,0,1,.077-.572,1.283,1.283,0,0,1,1.2-.857c.848,0,1.187.647,1.187,1.594v3.773h2.344ZM3.856,2.771a1.222,1.222,0,1,0-.031,2.437H3.84a1.222,1.222,0,1,0,.016-2.437Z" transform="translate(2.503 2.503)" fill="#fff" fill-rule="evenodd"/>
  </g>
</svg>
