<svg xmlns="http://www.w3.org/2000/svg" width="56" height="56" viewBox="0 0 56 56">
  <g id="Group_374" data-name="Group 374" transform="translate(-172 -1212)">
    <rect id="Rectangle_292" data-name="Rectangle 292" width="56" height="56" transform="translate(172 1212)" fill="none"/>
    <g id="light-bulb" transform="translate(181.41 1212)">
      <g id="Group_357" data-name="Group 357" transform="translate(0 0)">
        <path id="Path_426" data-name="Path 426" d="M110.859,11.066A18.577,18.577,0,0,0,97.4,41.262a24.557,24.557,0,0,1,5.349,15.4,2.327,2.327,0,0,0,2.332,2.332h13.612a2.327,2.327,0,0,0,2.332-2.332,23.952,23.952,0,0,1,5.235-15.247,18.585,18.585,0,0,0-15.4-30.345Zm11.8,27.373a28.312,28.312,0,0,0-6.206,15.887h-9.121a29.057,29.057,0,0,0-6.3-15.99,13.734,13.734,0,0,1-3.075-8.869A14.121,14.121,0,0,1,111.1,15.717a13.92,13.92,0,0,1,11.555,22.722Z" transform="translate(-93.291 -11.035)" fill="#fcdcb6"/>
        <path id="Path_427" data-name="Path 427" d="M194.578,460.2H181.732a2.332,2.332,0,0,0,0,4.663h12.847a2.332,2.332,0,0,0,0-4.663Z" transform="translate(-169.558 -408.863)" fill="#fcdcb6"/>
      </g>
    </g>
  </g>
</svg>
