<svg id="Layer_1" data-name="Layer 1" xmlns="http://www.w3.org/2000/svg" xmlns:xlink="http://www.w3.org/1999/xlink" width="168" height="39.273" viewBox="0 0 168 39.273">
  <defs>
    <clipPath id="clip-path">
      <path id="Path_6" data-name="Path 6" d="M200.238,170.67a7.006,7.006,0,0,0-1.821,1.821H190.01a14.647,14.647,0,0,1,10.227-10.234Zm-2.77,3.961a6.763,6.763,0,0,0-.217,1.732,6.916,6.916,0,0,0,6.916,6.916h4.751v7.737h-4.751A14.647,14.647,0,0,1,189.52,176.37a15.523,15.523,0,0,1,.1-1.732Zm6.7-12.921a14.647,14.647,0,0,1,14.647,14.647v4.763h-7.756v-4.763a6.929,6.929,0,0,0-8.648-6.706v-7.814a14.006,14.006,0,0,1,1.726-.1Zm6.922,21.569h7.731v7.737h-7.763Z" transform="translate(-189.52 -161.71)" fill="none"/>
    </clipPath>
    <linearGradient id="linear-gradient" x1="-0.093" y1="0.583" x2="1.09" y2="0.417" gradientUnits="objectBoundingBox">
      <stop offset="0" stop-color="#7649fe"/>
      <stop offset="1" stop-color="#00bfff"/>
    </linearGradient>
  </defs>
  <path id="Path_4" data-name="Path 4" d="M216.409,214.8v4.114a2.2,2.2,0,0,1-.293,1.1l-.713-.414a1.35,1.35,0,0,0,.185-.681v-.344h-.038a2.146,2.146,0,0,1-1.108.446h-.223a2.1,2.1,0,0,1-1.331-.452,2.178,2.178,0,0,1-.853-1.732V214.78h.822v2.051a1.672,1.672,0,0,0,.032.312,1.35,1.35,0,0,0,.427.713,1.369,1.369,0,0,0,2.235-.713,1.272,1.272,0,0,0,.038-.312V214.78Zm-8.355-.821v1.114l.331-.191.414.707-.745.433v2.872h-.841v-2.382l-.331.191-.408-.707.739-.433V213.99Zm-4.725,0a.477.477,0,0,1-.14.338.465.465,0,0,1-.338.14.439.439,0,0,1-.338-.14.459.459,0,0,1-.146-.338.446.446,0,0,1,.147-.337.439.439,0,0,1,.337-.14.478.478,0,0,1,.478.478Zm-.892,1.114h.822v3.821h-.822Zm-4.776-1.114h.821v4.935h-.821Zm-6.164.681a2.2,2.2,0,0,1,.853.172,2.235,2.235,0,0,1,.694.471,2.165,2.165,0,0,1,.637,1.547v2.063h-.821v-.344a2.192,2.192,0,0,1-.637.35,2.076,2.076,0,0,1-.739.127,2.172,2.172,0,0,1-.853-.172,2.217,2.217,0,0,1-.694-.465,2.191,2.191,0,0,1-.471-.7,2.14,2.14,0,0,1-.172-.847,2.165,2.165,0,0,1,.637-1.547,2.234,2.234,0,0,1,.694-.471,2.172,2.172,0,0,1,.853-.185Zm0,3.553a1.4,1.4,0,0,0,.535-.1,1.528,1.528,0,0,0,.433-.293,1.343,1.343,0,0,0,.287-.439,1.38,1.38,0,0,0-.287-1.5,1.369,1.369,0,0,0-1.5-.293,1.338,1.338,0,0,0-.433.293,1.274,1.274,0,0,0-.293.433,1.371,1.371,0,0,0,.293,1.5,1.446,1.446,0,0,0,.433.293,1.4,1.4,0,0,0,.516.1ZM181.1,214.8h.822v2.051a1.35,1.35,0,0,0,.108.529,1.471,1.471,0,0,0,.293.439,1.386,1.386,0,0,0,1.5.287,1.319,1.319,0,0,0,.433-.287,1.4,1.4,0,0,0,.4-.968V214.8h.822v2.051a2.14,2.14,0,0,1-.172.847,2.19,2.19,0,0,1-.471.7,2.2,2.2,0,0,1-3.095,0,2.191,2.191,0,0,1-.471-.7,2.14,2.14,0,0,1-.172-.847Zm-6.158-.14a2.139,2.139,0,0,1,.847.172,2.261,2.261,0,0,1,.7.471,2.145,2.145,0,0,1,.465.694,2.171,2.171,0,0,1,.172.853v2.872h-.821v-1.165a2.243,2.243,0,0,1-.637.35,2.1,2.1,0,0,1-.739.127,2.171,2.171,0,0,1-.853-.172,2.242,2.242,0,0,1-.7-.465,2.172,2.172,0,0,1-.465-.7,2.14,2.14,0,0,1-.172-.847,2.172,2.172,0,0,1,.172-.853,2.147,2.147,0,0,1,.465-.694,2.261,2.261,0,0,1,.7-.471,2.172,2.172,0,0,1,.834-.172Zm0,3.553a1.318,1.318,0,0,0,.962-.395,1.491,1.491,0,0,0,.3-.439,1.351,1.351,0,0,0,.1-.529,1.4,1.4,0,0,0-.1-.535,1.547,1.547,0,0,0-.3-.433,1.274,1.274,0,0,0-.433-.293,1.375,1.375,0,0,0-.529-.108,1.408,1.408,0,0,0-.535.108,1.338,1.338,0,0,0-.433.293,1.408,1.408,0,0,0-.293.433,1.36,1.36,0,0,0,0,1.063,1.365,1.365,0,0,0,.293.439,1.447,1.447,0,0,0,.433.293,1.4,1.4,0,0,0,.5.1Zm-10.4.7h-.822v-2.051a1.369,1.369,0,0,0-2.337-.968,1.527,1.527,0,0,0-.293.433,1.408,1.408,0,0,0-.108.535v2.051h-.815V213.99h.815v1.159a2.192,2.192,0,0,1,.637-.35,2.222,2.222,0,0,1,.739-.127,2.172,2.172,0,0,1,.853.172,2.234,2.234,0,0,1,.694.471,2.165,2.165,0,0,1,.637,1.547Zm-8.355-4.923v1.1l.331-.191.414.707-.745.433v2.872h-.822v-2.382l-.331.191-.408-.707.739-.433V213.99Zm-4.725,0a.478.478,0,0,1-.14.338.484.484,0,0,1-.681,0,.452.452,0,0,1-.14-.338.439.439,0,0,1,.14-.338.484.484,0,0,1,.821.338Zm-.93,1.1h.821v3.821h-.821Zm-4.343-.452.7.408-1.847,3.184-.465.809-.465-.809-.637-1.063-.637,1.063-.471.809-.465-.809-1.847-3.184.707-.408,1.6,2.789.637-1.057.465-.809.529-.923.707.408-.764,1.325.637,1.057Zm-14.462,4.095h-.076a2.114,2.114,0,0,1-1.044.274,2.868,2.868,0,0,1-.325,0,2.121,2.121,0,0,1-1.223-.637c-.051-.045-.089-.089-.134-.134l.637-.535a.547.547,0,0,0,.083.089,1.34,1.34,0,0,0,.146.121,1.274,1.274,0,0,0,.72.267h.1a1.305,1.305,0,0,0,.681-.185.452.452,0,0,0,.217-.287.478.478,0,0,0,0-.127.452.452,0,0,0-.064-.236.49.49,0,0,0-.216-.191.509.509,0,0,0-.191-.038H130.9l-.121.038a1.764,1.764,0,0,1-.541.146h-.083a1.223,1.223,0,0,1-.35-.051,1.274,1.274,0,0,1-.548-.3,1.516,1.516,0,0,1-.216-.274,1.324,1.324,0,0,1-.159-.478,1.441,1.441,0,0,1,0-.166,1.414,1.414,0,0,1,.038-.325,1.356,1.356,0,0,1,.573-.783h.076a2.133,2.133,0,0,1,1.044-.274,2.009,2.009,0,0,1,.337,0,2.07,2.07,0,0,1,1.229.637l-.58.579a.934.934,0,0,0-.172-.14,1.273,1.273,0,0,0-.72-.261h-.1a1.369,1.369,0,0,0-.681.185.446.446,0,0,0-.217.293.306.306,0,0,0,0,.127.458.458,0,0,0,.07.236.44.44,0,0,0,.217.185.509.509,0,0,0,.191.038.478.478,0,0,0,.134,0l.121-.045a1.7,1.7,0,0,1,.541-.14h.115a1.222,1.222,0,0,1,.35.051,1.318,1.318,0,0,1,.548.306,1.516,1.516,0,0,1,.217.274,1.274,1.274,0,0,1,.159.478,1.553,1.553,0,0,1,0,.172,1.285,1.285,0,0,1-.611,1.1Zm-10.113-1.592a1.356,1.356,0,0,0,.471.777,1.382,1.382,0,0,0,1.618.1,1.4,1.4,0,0,0,.5-.573l.739.35a2.183,2.183,0,0,1-2.834,1.1,2.216,2.216,0,0,1-.694-.465,2.191,2.191,0,0,1-.471-.7,2.14,2.14,0,0,1-.172-.847,2.165,2.165,0,0,1,.637-1.547,2.236,2.236,0,0,1,.694-.471,2.172,2.172,0,0,1,1.579-.045,2.12,2.12,0,0,1,.637.338,2.478,2.478,0,0,1,.478.522,2.248,2.248,0,0,1,.293.637,2.223,2.223,0,0,1,.064.548,2.019,2.019,0,0,1,0,.274Zm1.344-1.643a1.37,1.37,0,0,0-1.255.821h2.509a1.331,1.331,0,0,0-.5-.592,1.344,1.344,0,0,0-.745-.248Zm-6.814-1.522h.815v4.935h-.815Zm-6.164.681a2.14,2.14,0,0,1,.847.172,2.26,2.26,0,0,1,.7.471A2.146,2.146,0,0,1,112,216a2.172,2.172,0,0,1,.172.853v2.063h-.822v-.344a2.242,2.242,0,0,1-.637.35,2.1,2.1,0,0,1-.739.127,2.171,2.171,0,0,1-.853-.172,2.146,2.146,0,0,1-.694-.465,2.088,2.088,0,0,1-.471-.7,2.139,2.139,0,0,1-.172-.847,2.172,2.172,0,0,1,.172-.853,2.063,2.063,0,0,1,.471-.694,2.165,2.165,0,0,1,1.547-.637Zm0,3.553a1.37,1.37,0,0,0,.529-.1,1.309,1.309,0,0,0,.726-.732,1.36,1.36,0,0,0,0-1.063,1.324,1.324,0,0,0-.726-.726,1.365,1.365,0,0,0-1.789.726,1.36,1.36,0,0,0,0,1.063,1.337,1.337,0,0,0,1.274.834Zm-6.5.5h-.076a2.1,2.1,0,0,1-1.038.274h-.331a2.159,2.159,0,0,1-1.223-.637l-.127-.134.637-.535a.549.549,0,0,0,.083.089,1.346,1.346,0,0,0,.146.121,1.274,1.274,0,0,0,.726.268h.1a1.274,1.274,0,0,0,.675-.185.459.459,0,0,0,.223-.287.516.516,0,0,0-.051-.363.49.49,0,0,0-.217-.191.51.51,0,0,0-.191-.038h-.134l-.121.038a1.712,1.712,0,0,1-.541.146H101.9a1.221,1.221,0,0,1-.35-.051,1.175,1.175,0,0,1-.758-.573,1.222,1.222,0,0,1-.166-.478,1.459,1.459,0,0,1,0-.166,1.141,1.141,0,0,1,.045-.325,1.153,1.153,0,0,1,.2-.439,1.171,1.171,0,0,1,.363-.344h.083a2.107,2.107,0,0,1,1.038-.274,1.963,1.963,0,0,1,.338,0,2.108,2.108,0,0,1,1.235.637l-.586.58a1.172,1.172,0,0,0-.159-.146,1.306,1.306,0,0,0-.726-.261h-.1a1.331,1.331,0,0,0-.675.185.56.56,0,0,0-.248.42.458.458,0,0,0,.07.236.439.439,0,0,0,.217.185.516.516,0,0,0,.2.038.45.45,0,0,0,.127,0l.121-.045a1.744,1.744,0,0,1,.541-.14h.057a1.273,1.273,0,0,1,.357.051,1.356,1.356,0,0,1,.548.306,1.49,1.49,0,0,1,.21.274,1.274,1.274,0,0,1,.159.478,1.565,1.565,0,0,1,0,.172,1.274,1.274,0,0,1-.038.312,1.242,1.242,0,0,1-.573.783Z" transform="translate(-75.27 -180.735)" fill="#fefefe"/>
  <path id="Path_5" data-name="Path 5" d="M60.81,186.086a19.025,19.025,0,0,0,13.1,4.63,12.872,12.872,0,0,0,8.183-2.394,8.075,8.075,0,0,0,3.114-6.706v-.083a6.789,6.789,0,0,0-2.8-5.789,13.374,13.374,0,0,0-3.235-1.713,30.907,30.907,0,0,0-4.349-1.2,17.672,17.672,0,0,1-3.872-1.2,1.681,1.681,0,0,1-.962-1.516v-.076c0-1.2.923-1.8,2.8-1.8a13.436,13.436,0,0,1,7.788,2.751l3.872-5.47a17.814,17.814,0,0,0-11.5-3.713,11.737,11.737,0,0,0-7.9,2.515,7.992,7.992,0,0,0-2.917,6.432v.089a6.839,6.839,0,0,0,3.038,6.031,14.525,14.525,0,0,0,3.35,1.611c1.083.357,2.477.72,4.2,1.114a15.7,15.7,0,0,1,3.821,1.242,1.637,1.637,0,0,1,.955,1.465v.083c0,1.274-1.083,1.91-3.184,1.91a14.252,14.252,0,0,1-9.062-3.356Zm37.216-24-11.9,28.147h8.145l2-4.993h10.775l2.038,4.993h8.279L105.508,162.09Zm6.782,17.13H98.542l3.184-7.948Zm15.284-16.933v27.95h21.276v-6.788h-13.52V162.288Zm59.288,25.358q3.286,3.114,9.463,3.114c4.108,0,7.3-1.038,9.552-3.114,2.356-2.2,3.553-5.47,3.553-9.832V162.288h-7.865v15.768q0,5.731-5.152,5.731c-3.432,0-5.152-2-5.152-5.961V162.288h-7.865v15.729q0,6.406,3.477,9.705Zm25.033-1.56a19,19,0,0,0,13.093,4.63,12.872,12.872,0,0,0,8.183-2.394,8.075,8.075,0,0,0,3.114-6.706v-.083a6.789,6.789,0,0,0-2.8-5.789,13.45,13.45,0,0,0-3.229-1.713,31.269,31.269,0,0,0-4.356-1.2,17.792,17.792,0,0,1-3.872-1.2,1.675,1.675,0,0,1-.955-1.516v-.076c0-1.2.917-1.8,2.789-1.8a13.437,13.437,0,0,1,7.788,2.751l3.872-5.47a17.8,17.8,0,0,0-11.5-3.713,11.737,11.737,0,0,0-7.9,2.515,7.992,7.992,0,0,0-2.917,6.432v.089a6.84,6.84,0,0,0,3.038,6.031,14.454,14.454,0,0,0,3.356,1.637c1.076.357,2.471.72,4.19,1.114a15.6,15.6,0,0,1,3.821,1.242,1.637,1.637,0,0,1,.917,1.433v.083c0,1.274-1.076,1.91-3.184,1.91a14.265,14.265,0,0,1-9.062-3.356Z" transform="translate(-60.81 -161.746)" fill="#fefefe"/>
  <g id="Group_2" data-name="Group 2" transform="translate(81.965)" clip-path="url(#clip-path)">
    <rect id="Rectangle_6" data-name="Rectangle 6" width="29.306" height="29.306" transform="translate(-0.038 0.025)" fill="url(#linear-gradient)"/>
  </g>
</svg>
