<svg xmlns="http://www.w3.org/2000/svg" width="56" height="56" viewBox="0 0 56 56">
  <path id="radar" d="M29.29,35.705V29.43h6.574A8.119,8.119,0,0,1,29.29,35.705Zm2.087-9.136h4.556a7.964,7.964,0,0,0-1.293-3.263Zm-4.948,9.1V29.43H20.174A8.108,8.108,0,0,0,26.43,35.671ZM29.29,0V7.545a20.346,20.346,0,0,1,12.056,4.979L46.7,7.157A27.953,27.953,0,0,0,29.29,0ZM48.775,9.174,43.4,14.553a20.221,20.221,0,0,1,4.9,12.016h7.727A27.923,27.923,0,0,0,48.775,9.174ZM20.1,26.57H26.43V19.947A8.019,8.019,0,0,0,20.1,26.57ZM29.29,10.411v6.613a10.519,10.519,0,0,1,5.354,2.2L39.3,14.551A17.383,17.383,0,0,0,29.29,10.411Zm0,9.5v4.634l3.279-3.279A7.3,7.3,0,0,0,29.29,19.913ZM7.746,26.57A20.259,20.259,0,0,1,26.43,7.557V.009A28,28,0,0,0,.019,26.57ZM26.43,48.062A20.313,20.313,0,0,1,7.772,29.43H.019A28,28,0,0,0,26.43,55.991ZM48.266,29.43A20.349,20.349,0,0,1,29.29,48.074V56A28.035,28.035,0,0,0,56.019,29.43ZM26.43,45.191V38.57a10.8,10.8,0,0,1-9.161-9.14H10.644A17.4,17.4,0,0,0,26.43,45.191ZM10.612,26.57h6.608a10.931,10.931,0,0,1,9.209-9.521V10.428A17.512,17.512,0,0,0,10.612,26.57Zm34.782,2.86H38.769a10.832,10.832,0,0,1-9.478,9.164v6.613A17.441,17.441,0,0,0,45.394,29.43ZM36.688,21.26a10.812,10.812,0,0,1,2.129,5.31h6.608a17.369,17.369,0,0,0-4.059-9.988Z" transform="translate(-0.019)" fill="#00bfff"/>
</svg>
