<svg id="instagram-fill" xmlns="http://www.w3.org/2000/svg" width="21" height="21" viewBox="0 0 21 21">
  <g id="instagram-fill-2" data-name="instagram-fill">
    <path id="Path_410" data-name="Path 410" d="M0,0H21V21H0Z" fill="none"/>
    <path id="Path_411" data-name="Path 411" d="M9.788,2c2.116,0,2.38.008,3.21.047a5.737,5.737,0,0,1,1.891.362,3.8,3.8,0,0,1,1.38.9,3.822,3.822,0,0,1,.9,1.38,5.753,5.753,0,0,1,.362,1.891c.037.83.047,1.094.047,3.21s-.008,2.38-.047,3.21a5.757,5.757,0,0,1-.362,1.891,3.976,3.976,0,0,1-2.278,2.278A5.753,5.753,0,0,1,13,17.529c-.83.037-1.094.047-3.21.047s-2.38-.008-3.21-.047a5.757,5.757,0,0,1-1.891-.362,3.976,3.976,0,0,1-2.278-2.278A5.733,5.733,0,0,1,2.047,13C2.01,12.168,2,11.9,2,9.788s.008-2.38.047-3.21a5.733,5.733,0,0,1,.362-1.891,3.8,3.8,0,0,1,.9-1.38,3.814,3.814,0,0,1,1.38-.9,5.733,5.733,0,0,1,1.891-.362C7.408,2.01,7.672,2,9.788,2Zm0,3.894a3.894,3.894,0,1,0,3.894,3.894A3.894,3.894,0,0,0,9.788,5.894ZM14.85,5.7a.973.973,0,1,0-.973.973A.973.973,0,0,0,14.85,5.7ZM9.788,7.451A2.336,2.336,0,1,1,7.451,9.788,2.336,2.336,0,0,1,9.788,7.451Z" transform="translate(0.712 0.712)" fill="#fff"/>
  </g>
</svg>
