<svg id="youtube-fill" xmlns="http://www.w3.org/2000/svg" width="21" height="21" viewBox="0 0 21 21">
  <g id="youtube-fill-2" data-name="youtube-fill">
    <path id="Path_412" data-name="Path 412" d="M0,0H21V21H0Z" fill="none"/>
    <path id="Path_422" data-name="Path 422" d="M13.335,18V12.195h1.944l.291-2.257H13.335V8.5c0-.653.182-1.1,1.118-1.1h1.2V5.381a15.992,15.992,0,0,0-1.742-.089,2.719,2.719,0,0,0-2.9,2.983V9.938H9.057v2.257h1.948V18H3.833A.833.833,0,0,1,3,17.167V3.833A.833.833,0,0,1,3.833,3H17.167A.833.833,0,0,1,18,3.833V17.167a.833.833,0,0,1-.833.833Z" fill="#fff"/>
  </g>
</svg>
